<?xml version="1.0" encoding="UTF-8"?>
<svg id="Layer_1" data-name="Layer 1" xmlns="http://www.w3.org/2000/svg" viewBox="0 0 431.91 180.25">
  <defs>
    <style>
      .cls-1 {
        stroke-width: 3px;
      }

      .cls-1, .cls-2, .cls-3, .cls-4 {
        fill: none;
        stroke: #fff;
        stroke-miterlimit: 10;
      }

      .cls-5 {
        letter-spacing: .06em;
      }

      .cls-6 {
        letter-spacing: .01em;
      }

      .cls-7 {
        letter-spacing: .02em;
      }

      .cls-8 {
        font-family: MontserratRoman-Medium, Montserrat;
        font-size: 27px;
        font-variation-settings: 'wght' 500;
        font-weight: 500;
      }

      .cls-8, .cls-9 {
        fill: #fff;
      }

      .cls-2 {
        stroke-width: 5px;
      }

      .cls-9 {
        font-family: Sellebou-Display, Sellebou;
        font-size: 100px;
      }

      .cls-10 {
        letter-spacing: .07em;
      }

      .cls-11 {
        letter-spacing: .07em;
      }

      .cls-3 {
        stroke-width: 2px;
      }

      .cls-12 {
        letter-spacing: .02em;
      }

      .cls-4 {
        stroke-width: 8px;
      }
    </style>
  </defs>
  <path class="cls-3" d="m131.68,98.19c-4.76,0-8.62-3.86-8.62-8.62h0c0-4.76,3.86-8.62,8.62-8.62"/>
  <path class="cls-4" d="m134.84,147.37c0,5.08-3.93,9.41-9.01,9.64-.16,0-.33.01-.49.01H61.26c-3.93,0-7.56-2.11-9.5-5.52l-32.17-56.51c-1.91-3.35-1.91-7.47,0-10.82L51.76,27.65c1.94-3.42,5.57-5.52,9.5-5.52h64.08c.16,0,.33,0,.49.01,5.08.23,9.01,4.55,9.01,9.64v115.59Z"/>
  <text class="cls-9" transform="translate(139.91 125.77) scale(1.2 1)"><tspan class="cls-7" x="0" y="0">DI</tspan><tspan class="cls-6" x="98.9" y="0">B</tspan><tspan class="cls-12" x="168" y="0">A</tspan></text>
  <path class="cls-1" d="m131.68,110.81c-11.73,0-21.24-9.51-21.24-21.24h0c0-11.73,9.51-21.24,21.24-21.24"/>
  <path class="cls-2" d="m131.68,125.23c-19.69,0-35.66-15.97-35.66-35.66h0c0-19.69,15.97-35.66,35.66-35.66"/>
  <text class="cls-8" transform="translate(222.45 162.67)"><tspan class="cls-5" x="0" y="0">E</tspan><tspan class="cls-11" x="19.79" y="0">a</tspan><tspan class="cls-5" x="37.83" y="0">r</tspan><tspan class="cls-10" x="50.6" y="0">buds</tspan></text>
</svg>